<?xml version="1.0" standalone="no"?>
<!DOCTYPE svg PUBLIC "-//W3C//DTD SVG 20010904//EN"
 "http://www.w3.org/TR/2001/REC-SVG-20010904/DTD/svg10.dtd">
<svg version="1.0" xmlns="http://www.w3.org/2000/svg"
 width="600.000000pt" height="600.000000pt" viewBox="0 0 600.000000 600.000000"
 preserveAspectRatio="xMidYMid meet">
<g transform="translate(0.000000,600.000000) scale(0.100000,-0.100000)"
fill="#000000" stroke="none">
<path d="M2970 4553 c0 -49 5 -359 11 -691 13 -649 12 -663 -37 -767 -34 -74
-87 -130 -150 -161 l-56 -27 -441 12 c-243 6 -472 11 -509 11 l-68 0 0 -32 0
-31 213 6 c116 4 347 10 512 13 296 7 301 6 347 -16 88 -41 153 -131 184 -255
16 -61 16 -115 5 -678 -6 -337 -11 -649 -11 -694 l0 -83 32 0 31 0 -6 293
c-20 868 -20 1100 -4 1164 31 120 98 213 184 254 45 22 50 22 347 15 165 -3
397 -9 514 -13 l212 -6 0 31 0 32 -67 0 c-38 0 -266 -5 -508 -11 l-440 -12
-52 23 c-90 39 -157 128 -190 253 -16 64 -16 296 4 1165 l6 292 -31 0 -32 0 0
-87z"/>
<path d="M2682 4231 c-11 -6 8 -92 89 -412 56 -222 109 -432 117 -466 9 -35
20 -63 25 -63 4 0 6 8 3 18 -3 9 -44 215 -91 457 -47 242 -88 448 -91 458 -6
18 -30 22 -52 8z"/>
<path d="M3295 4189 c-2 -8 -29 -124 -59 -259 -31 -135 -75 -333 -100 -440
-39 -173 -46 -214 -32 -199 6 6 257 891 254 894 -2 2 -15 6 -30 10 -19 5 -29
3 -33 -6z"/>
<path d="M2353 3772 l-22 -17 190 -240 c237 -299 260 -327 266 -322 6 6 -396
597 -405 597 -4 0 -17 -8 -29 -18z"/>
<path d="M3410 3494 c-111 -163 -199 -298 -197 -301 5 -4 135 156 409 503 l48
62 -25 16 c-13 9 -26 16 -29 16 -2 0 -95 -133 -206 -296z"/>
<path d="M2048 3355 c-7 -15 -8 -29 -2 -34 9 -9 660 -291 672 -291 11 0 -11
17 -48 37 -19 11 -164 86 -322 167 l-288 147 -12 -26z"/>
<path d="M3685 3214 c-148 -69 -299 -138 -334 -155 -35 -16 -62 -32 -59 -35 6
-5 676 243 691 256 9 8 -9 60 -20 59 -5 0 -129 -57 -278 -125z"/>
<path d="M2360 2655 c-329 -125 -345 -132 -342 -155 1 -14 6 -28 10 -32 6 -6
664 290 680 306 3 3 3 7 1 9 -2 2 -159 -56 -349 -128z"/>
<path d="M3284 2763 c18 -19 652 -340 658 -334 4 3 9 17 13 31 5 24 -3 29
-327 168 -314 134 -362 153 -344 135z"/>
<path d="M2734 2558 c-49 -64 -229 -291 -336 -427 -33 -40 -57 -78 -55 -84 2
-6 12 -16 23 -24 19 -12 31 4 217 277 185 270 216 320 205 320 -3 0 -27 -28
-54 -62z"/>
<path d="M3213 2607 c4 -9 95 -148 204 -307 188 -278 197 -290 217 -276 12 8
20 21 20 29 -1 8 -37 59 -80 113 -43 54 -139 176 -212 269 -149 188 -158 198
-149 172z"/>
<path d="M2766 2064 c-70 -245 -125 -448 -123 -451 3 -2 17 -5 33 -6 24 -2 29
2 35 33 5 19 50 223 102 453 52 229 91 417 87 417 -4 0 -65 -201 -134 -446z"/>
<path d="M3084 2493 c3 -10 44 -216 91 -458 47 -242 88 -448 91 -458 4 -13 12
-16 32 -11 15 4 29 8 30 10 7 5 -232 934 -241 934 -4 0 -6 -8 -3 -17z"/>
</g>
</svg>
